<svg width="1024" height="1024" viewBox="0 0 1024 1024" fill="none" xmlns="http://www.w3.org/2000/svg">
<path d="M511.835 276.491C516.135 284.341 520.89 294.778 524.87 302.948L549.335 352.972C552.63 361.25 561.575 377.929 565.865 386.695L600.03 456.846L645.48 550.04L657.11 573.83C658.165 575.985 661.94 583.899 663.155 585.435C668.975 599.12 678.125 616.56 684.71 630.37L740.83 746.525C728.725 746.465 718.28 745.755 706.725 743.055C671.465 734.83 640.095 711.51 625.795 677.785C624.555 674.86 622.82 671.585 621.396 668.625C615.984 657.298 610.445 646.032 604.784 634.828L602.35 630.03C600.91 626.145 596.13 616.971 594.05 612.73L576.445 577.245C573.39 571.955 568.82 561.71 565.925 555.845C565.32 554.56 564.78 553.275 564.225 551.97C560.325 545.75 553.51 529.925 549.71 522.37C548.66 520.775 545.296 513.446 544.275 511.325C543.76 510 542.36 507.49 541.655 506.13C541.055 504.355 539.295 501.015 538.415 499.21C535.77 493.652 531.165 485.704 529.16 480.42C518.825 458.553 507.18 436.195 496.486 414.527C493.89 409.264 472.785 365.216 470.768 363.777L470.661 363.362C470.426 362.424 470.308 361.671 470.773 360.674C475.205 351.174 480.038 341.5 484.656 332.106L511.835 276.491ZM302.594 745.513C302.415 745.532 302.236 745.55 302.057 745.568C302.51 745.521 302.963 745.47 303.414 745.419C303.141 745.45 302.868 745.483 302.594 745.513ZM312.225 686.177C311.614 687.43 311.001 688.682 310.387 689.935C311.045 688.591 311.703 687.247 312.358 685.902L312.225 686.177ZM318.542 673.06C317.834 674.549 317.121 676.05 316.396 677.56C317.121 676.05 317.834 674.549 318.542 673.06ZM321.299 667.231C320.94 667.993 320.578 668.756 320.216 669.522C321.115 667.618 322.005 665.73 322.886 663.855L321.299 667.231ZM408.815 656.621C408.783 656.655 408.751 656.687 408.719 656.719C408.815 656.622 408.913 656.52 409.01 656.411L408.815 656.621ZM497.183 625.142C497.14 625.14 497.098 625.141 497.055 625.139L497.031 625.137C497.082 625.14 497.132 625.14 497.183 625.142ZM478.491 621.875C478.516 621.883 478.542 621.89 478.567 621.897C478.481 621.872 478.395 621.849 478.312 621.823L477.892 621.688C478.079 621.751 478.28 621.812 478.491 621.875ZM477.148 621.072C477.265 621.233 477.385 621.394 477.51 621.555C477.385 621.394 477.265 621.233 477.148 621.072ZM477.148 621.072C477.108 621.017 477.068 620.961 477.028 620.905C476.981 620.839 476.934 620.772 476.888 620.706L477.148 621.072ZM469.648 617.175C469.566 617.064 469.487 616.953 469.41 616.843C469.388 616.81 469.366 616.777 469.344 616.745C469.442 616.887 469.542 617.031 469.648 617.175ZM510.342 610.687C510.719 610.624 511.087 610.564 511.445 610.51C511.467 610.507 511.488 610.503 511.51 610.5C511.562 610.492 511.613 610.485 511.665 610.478C511.237 610.54 510.797 610.611 510.342 610.687ZM512.812 610.323C512.811 610.323 512.809 610.323 512.807 610.323C512.912 610.311 513.017 610.299 513.121 610.288C513.019 610.299 512.916 610.311 512.812 610.323ZM574.323 608.579C574.328 608.724 574.324 608.885 574.31 609.067C574.324 608.885 574.328 608.724 574.323 608.579ZM574.271 608.136C574.271 608.138 574.271 608.14 574.271 608.143C574.272 608.147 574.273 608.151 574.273 608.155C574.269 608.137 574.266 608.118 574.262 608.1C574.264 608.112 574.268 608.124 574.271 608.136ZM574.219 607.947C574.23 607.981 574.241 608.014 574.25 608.049C574.251 608.052 574.251 608.055 574.252 608.059C574.241 608.019 574.228 607.98 574.216 607.941C574.216 607.943 574.218 607.945 574.219 607.947ZM574.053 607.555C574.119 607.687 574.174 607.812 574.216 607.941C574.174 607.812 574.119 607.687 574.053 607.555ZM573.06 605.771C573.167 605.98 573.268 606.167 573.362 606.336C573.268 606.167 573.167 605.98 573.06 605.771C572.981 605.416 572.907 605.136 572.849 604.897V604.896C572.907 605.136 572.981 605.415 573.06 605.771ZM354.412 604.609L355.41 603.142C355.431 603.11 355.452 603.079 355.474 603.048C355.117 603.568 354.763 604.088 354.412 604.609ZM355.878 602.465C356.06 602.202 356.241 601.938 356.424 601.676C356.459 601.626 356.494 601.576 356.529 601.525C356.311 601.838 356.094 602.152 355.878 602.465ZM580.226 600.393C579.918 600.485 579.607 600.578 579.293 600.671C579.76 600.533 580.22 600.393 580.672 600.259C580.524 600.303 580.375 600.347 580.226 600.393ZM357.149 600.646C357.251 600.502 357.351 600.357 357.453 600.214C357.519 600.121 357.585 600.029 357.65 599.937C357.482 600.172 357.316 600.409 357.149 600.646ZM359.027 598.025C359.107 597.916 359.187 597.807 359.268 597.697C359.187 597.807 359.107 597.916 359.027 598.025ZM361.461 594.753C361.536 594.654 361.612 594.555 361.688 594.456C361.612 594.555 361.536 594.654 361.461 594.753ZM372.375 581.538C372.416 581.493 372.456 581.448 372.497 581.402C372.784 581.084 373.073 580.766 373.362 580.447C373.031 580.811 372.702 581.174 372.375 581.538ZM390.463 565.805C389.344 566.643 388.267 567.477 387.215 568.313C388.126 567.589 389.055 566.866 390.015 566.141C390.163 566.028 390.313 565.917 390.463 565.805ZM392.138 564.569C392.261 564.48 392.384 564.389 392.508 564.3C392.55 564.269 392.593 564.239 392.636 564.208C392.468 564.328 392.303 564.449 392.138 564.569ZM518.083 563.623C518.082 563.436 518.083 563.241 518.085 563.04L518.088 562.889C518.084 563.144 518.082 563.389 518.083 563.623ZM382.007 560.783C382.278 561.055 382.548 561.313 382.811 561.562C382.759 561.513 382.708 561.464 382.656 561.415C382.558 561.322 382.459 561.227 382.359 561.131C382.302 561.075 382.244 561.019 382.187 560.962C382.127 560.903 382.067 560.843 382.007 560.783ZM396.844 561.317C396.937 561.256 397.03 561.193 397.124 561.131C397.318 561.004 397.512 560.877 397.706 560.751C397.418 560.939 397.131 561.128 396.844 561.317ZM398.074 560.512C398.129 560.476 398.184 560.44 398.239 560.404C398.419 560.288 398.6 560.175 398.78 560.06C398.545 560.21 398.309 560.36 398.074 560.512ZM381.472 560.23C381.432 560.188 381.392 560.146 381.353 560.104C381.339 560.089 381.324 560.075 381.311 560.06C381.264 560.009 381.219 559.957 381.173 559.904C381.272 560.015 381.372 560.124 381.472 560.23ZM381.119 559.844C381.137 559.864 381.155 559.884 381.173 559.904C381.147 559.875 381.121 559.846 381.095 559.816C381.103 559.826 381.111 559.835 381.119 559.844ZM381.095 559.816C381.046 559.762 380.997 559.707 380.948 559.651C380.92 559.619 380.893 559.585 380.865 559.552C380.942 559.641 381.018 559.73 381.095 559.816ZM380.521 559.134C380.404 558.988 380.288 558.838 380.175 558.685C380.288 558.838 380.404 558.988 380.521 559.134ZM520.865 557.917C520.886 557.886 520.906 557.855 520.928 557.824C520.939 557.809 520.95 557.794 520.961 557.778C520.928 557.824 520.897 557.871 520.865 557.917ZM521.858 557.156C521.928 557.122 521.998 557.086 522.07 557.052C522.124 557.026 522.179 557.002 522.234 556.977C522.106 557.036 521.98 557.096 521.858 557.156ZM522.422 556.89C522.476 556.865 522.53 556.841 522.585 556.816C522.704 556.764 522.827 556.713 522.951 556.661C522.77 556.737 522.593 556.813 522.422 556.89ZM522.995 556.643C523.184 556.564 523.379 556.486 523.578 556.408C523.379 556.486 523.184 556.564 522.995 556.643ZM526.155 555.517C526.198 555.503 526.24 555.49 526.283 555.477L526.979 555.269C526.701 555.35 526.426 555.433 526.155 555.517ZM414.135 551.432C414.226 551.387 414.318 551.341 414.409 551.297C414.642 551.184 414.874 551.072 415.107 550.96C414.783 551.116 414.459 551.273 414.135 551.432ZM415.385 550.827C415.457 550.793 415.529 550.758 415.601 550.724L416.798 550.16C416.326 550.38 415.855 550.603 415.385 550.827ZM424.548 546.808C423.419 547.26 422.294 547.726 421.176 548.205C421.327 548.14 421.478 548.075 421.629 548.011C422.44 547.666 423.254 547.329 424.07 546.999C424.229 546.935 424.389 546.871 424.548 546.808ZM394.18 546.627C394.352 546.514 394.524 546.4 394.696 546.288C394.524 546.4 394.352 546.514 394.18 546.627ZM398.081 544.123C398.222 544.035 398.364 543.947 398.505 543.859C398.364 543.947 398.222 544.035 398.081 544.123ZM400.206 542.811C400.247 542.786 400.287 542.761 400.328 542.736C400.287 542.761 400.247 542.786 400.206 542.811ZM401.881 541.804C402.026 541.717 402.171 541.631 402.315 541.546C402.171 541.631 402.026 541.717 401.881 541.804ZM403.924 540.605C404.034 540.542 404.145 540.479 404.256 540.415C404.145 540.479 404.034 540.542 403.924 540.605ZM405.763 539.559C405.849 539.51 405.935 539.462 406.021 539.414C405.935 539.462 405.849 539.51 405.763 539.559ZM407.732 538.468C407.811 538.425 407.891 538.383 407.97 538.34C407.891 538.383 407.811 538.425 407.732 538.468ZM409.457 537.543C409.561 537.488 409.665 537.432 409.769 537.377C409.665 537.432 409.561 537.488 409.457 537.543ZM411.501 536.478C411.55 536.452 411.599 536.427 411.648 536.402C411.599 536.427 411.55 536.452 411.501 536.478ZM413.288 535.576C413.35 535.546 413.411 535.515 413.473 535.484C413.411 535.515 413.35 535.546 413.288 535.576ZM489.398 535.486C489.915 535.491 490.426 535.497 490.927 535.502C490.226 535.495 489.506 535.488 488.775 535.482L489.398 535.486ZM415.174 534.655C415.281 534.604 415.388 534.553 415.495 534.502C415.388 534.553 415.281 534.604 415.174 534.655ZM417.088 533.752C417.128 533.733 417.168 533.714 417.208 533.695C417.168 533.714 417.128 533.733 417.088 533.752ZM418.952 532.9C419.05 532.857 419.148 532.813 419.246 532.77C419.148 532.813 419.05 532.856 418.952 532.9ZM420.857 532.062C420.896 532.045 420.934 532.027 420.973 532.011C420.934 532.027 420.896 532.045 420.857 532.062ZM422.731 531.265C422.818 531.228 422.905 531.192 422.991 531.156C422.905 531.192 422.818 531.228 422.731 531.265ZM426.571 529.719C426.646 529.69 426.722 529.661 426.797 529.632C426.722 529.661 426.646 529.69 426.571 529.719ZM430.386 528.292C430.508 528.248 430.63 528.205 430.752 528.161C430.63 528.205 430.508 528.248 430.386 528.292ZM393.313 516.534C393.178 516.859 392.968 517.346 392.688 517.971C392.968 517.346 393.178 516.859 393.313 516.534ZM390.021 514.552C390.242 514.714 390.466 514.866 390.692 515.007C390.805 515.077 390.919 515.145 391.033 515.21H391.032C390.583 514.955 390.143 514.654 389.714 514.318C389.816 514.398 389.918 514.476 390.021 514.552ZM389.714 514.318C389.707 514.313 389.7 514.307 389.692 514.302C389.679 514.291 389.666 514.281 389.653 514.271C389.674 514.286 389.694 514.303 389.714 514.318ZM389.469 514.12C389.327 514.004 389.186 513.886 389.048 513.763C389.186 513.886 389.327 514.004 389.469 514.12ZM628.583 501.23C628.58 501.236 628.576 501.242 628.573 501.248C628.614 501.165 628.654 501.084 628.689 501.004L628.583 501.23ZM628.93 500.365C628.91 500.432 628.889 500.501 628.864 500.57L628.783 500.783C628.841 500.639 628.891 500.499 628.93 500.365ZM382.298 499.453C382.29 499.245 382.285 499.037 382.284 498.829C382.285 499.037 382.29 499.245 382.298 499.453ZM629.168 499.372C629.166 499.384 629.162 499.395 629.16 499.407C629.164 499.388 629.167 499.369 629.171 499.351L629.168 499.372ZM629.301 497.528C629.308 497.673 629.312 497.818 629.311 497.964L629.31 497.965C629.311 497.818 629.308 497.673 629.301 497.528ZM629.301 497.512C629.301 497.517 629.301 497.523 629.301 497.528C629.3 497.513 629.299 497.498 629.298 497.482C629.298 497.492 629.3 497.502 629.301 497.512ZM382.486 495.865C382.497 495.784 382.506 495.703 382.518 495.621L382.604 495.056C382.56 495.328 382.522 495.598 382.486 495.865ZM615.152 485.92C615.38 486.229 615.625 486.547 615.888 486.875V486.876C615.625 486.547 615.38 486.229 615.152 485.92ZM386.915 480.076C386.679 480.798 386.435 481.535 386.186 482.281H386.185C386.434 481.535 386.678 480.798 386.915 480.076ZM387.695 477.63C387.583 477.998 387.466 478.371 387.346 478.75C387.301 478.89 387.254 479.03 387.208 479.172C387.377 478.648 387.541 478.134 387.695 477.63ZM615.812 467.998L615.829 468.706C615.825 468.469 615.819 468.233 615.812 467.998L615.785 467.296C615.796 467.529 615.805 467.763 615.812 467.998ZM394.798 454.357C394.677 454.556 394.558 454.758 394.442 454.965C394.558 454.758 394.677 454.555 394.798 454.356V454.357ZM599.911 449.464C599.87 449.47 599.83 449.474 599.789 449.479C599.894 449.465 599.998 449.448 600.104 449.433C600.039 449.442 599.975 449.455 599.911 449.464ZM602.633 449.018C601.982 449.121 601.329 449.237 600.688 449.342C601.329 449.237 601.982 449.121 602.633 449.018ZM604.59 448.775C604.138 448.809 603.679 448.863 603.218 448.929C603.394 448.904 603.57 448.88 603.745 448.858C604.029 448.824 604.311 448.796 604.59 448.775ZM416.946 430.529L416.829 430.787C416.886 430.667 416.939 430.545 416.99 430.42C416.975 430.456 416.962 430.493 416.946 430.529ZM556.722 365.053C556.866 365.336 557.009 365.619 557.152 365.903C556.743 365.093 556.332 364.287 555.919 363.486L556.722 365.053ZM382.608 502.3C382.568 502.082 382.533 501.863 382.5 501.644L382.608 502.3ZM382.397 500.842C382.377 500.651 382.36 500.461 382.345 500.27C382.36 500.461 382.377 500.651 382.397 500.842Z" fill="#B49056"/>
<path d="M505.275 535.253C505.419 535.301 505.561 535.353 505.7 535.41C506.935 535.43 509.2 535.53 510.34 535.43L514.105 535.535L513.89 536.245C517.325 538.49 516.94 539.06 516.7 543.03L517.775 541.6L518.62 541.55C519.615 545.37 517.96 558.625 518.09 564.165C518.905 563.53 518.851 563.485 519.521 562.67C519.87 560.605 519.89 559.105 521.15 557.53C525.65 554.95 536.975 552.77 542.385 552.29C544.1 552.14 545.805 555.645 547.785 556.43C551.698 562.799 570.141 603.311 572.834 606.482L572.95 606.605L573.355 608.53C571.01 610.195 564.27 609.33 560.93 609.39L507.155 609.505C461.868 609.44 426.246 605.36 408.239 657.155C398.716 676.505 390.781 696.541 375.288 711.565C348.295 737.74 319.258 746.405 282.861 746.555C293.539 723.43 305.363 700.55 316.396 677.56C334.29 640.275 346.582 609.145 375.126 578.53V578.528C381.612 572.954 386.732 568.35 393.814 563.37C417.169 547.13 444.554 537.66 472.95 536C476.094 535.11 494.139 535.605 498.788 535.57L505.7 535.41C505.561 535.353 505.419 535.301 505.275 535.253ZM409.01 656.411C408.913 656.52 408.815 656.622 408.719 656.719C408.751 656.687 408.783 656.655 408.815 656.621L409.01 656.411ZM485.509 623.437H485.51H485.509ZM477.892 621.688C478.294 621.823 478.754 621.958 479.263 622.095L480.339 622.368C479.583 622.186 478.899 622.003 478.312 621.823L477.892 621.688ZM477.51 621.555C476.689 620.501 476.065 619.42 475.349 618.557C475.588 618.844 475.816 619.156 476.045 619.483C476.274 619.811 476.503 620.153 476.744 620.501C476.985 620.849 477.236 621.203 477.51 621.555ZM504.519 618.825V618.826V618.825ZM468.403 615.206C468.581 615.532 468.77 615.857 468.975 616.185C468.77 615.857 468.581 615.532 468.403 615.206ZM447.82 616.413C447.727 616.468 447.632 616.517 447.539 616.564C447.632 616.517 447.727 616.468 447.82 616.413ZM508.49 611.119C507.929 611.671 507.427 612.481 506.943 613.438C507.119 613.089 507.298 612.761 507.48 612.457C507.572 612.305 507.664 612.16 507.758 612.021C507.945 611.744 508.138 611.493 508.339 611.275L508.49 611.119ZM454.263 613.644H454.264H454.263ZM466.785 611.513C466.759 611.593 466.726 611.69 466.683 611.805C466.811 612.048 466.934 612.286 467.052 612.521C466.934 612.286 466.811 612.048 466.683 611.805C466.726 611.69 466.759 611.593 466.785 611.513ZM467.089 610.997V610.996V610.997ZM515.126 610.158C513.328 610.172 511.169 610.536 508.645 610.975C510.917 610.579 512.893 610.245 514.576 610.172L515.126 610.158ZM517.111 610.327V610.326V610.327ZM572.404 610.093C572.211 610.114 572.013 610.13 571.811 610.142C572.013 610.13 572.211 610.114 572.404 610.093ZM573.162 609.968C573.068 609.99 572.971 610.009 572.872 610.026C572.971 610.009 573.068 609.99 573.162 609.968ZM573.416 606.432C574.091 607.632 574.398 607.9 574.312 609.032C574.398 607.9 574.091 607.631 573.416 606.432ZM376.261 576.542C376.214 576.607 376.167 576.673 376.121 576.74C376.167 576.673 376.214 576.607 376.261 576.542ZM377.884 574.717C377.471 575.105 377.081 575.511 376.717 575.952C377.081 575.511 377.472 575.105 377.884 574.717ZM384.207 569.163C384.1 569.284 383.988 569.408 383.869 569.533C383.988 569.408 384.1 569.284 384.207 569.163ZM384.736 568.528V568.529V568.528ZM380.545 559.168C380.795 559.481 381.052 559.777 381.311 560.059C381.44 560.2 381.569 560.337 381.699 560.472C382.478 561.278 383.256 561.969 383.925 562.618C382.921 561.645 381.672 560.577 380.545 559.168ZM409.671 537.429C408.421 538.089 407.169 538.77 405.914 539.474C407.169 538.77 408.421 538.089 409.671 537.429ZM502.026 534.731C502.189 534.737 502.352 534.744 502.513 534.754C502.352 534.744 502.189 534.737 502.026 534.731ZM417.172 533.712V533.713V533.712ZM436.529 526.203V526.204C435.182 526.636 433.85 527.079 432.531 527.535C431.212 527.991 429.906 528.46 428.61 528.943C431.201 527.977 433.835 527.067 436.529 526.203ZM449.133 522.59C448.402 522.778 447.678 522.968 446.958 523.159L444.815 523.739C445.525 523.544 446.239 523.35 446.958 523.158L449.133 522.59ZM488.938 516.834C488.954 517.105 488.973 517.364 488.993 517.605C488.973 517.364 488.954 517.105 488.938 516.834Z" fill="#B49056"/>
<path d="M463.851 386.063C466.552 392.344 470.02 399.234 473.257 405.306C483.514 424.547 492.487 444.853 502.635 464.084L496.661 475.867C495.252 479.445 492.448 485.225 490.544 488.655C488.892 492.027 485.454 499.806 483.811 502.56C482.6 505.154 480.92 508.505 479.885 511.1L477.765 515.31C476.971 516.679 476.727 517.23 475.588 518.375C474.118 518.7 457.274 520.94 455.866 520.945C431.326 526.65 413.473 533.7 392.492 547.745C390.452 549.11 382.216 554.885 380.827 556.465C377.925 558.59 374.974 561.795 371.676 564.285C378.626 549.555 385.732 534.9 392.993 520.32L429.151 446.496C439.683 425.075 449.957 401.349 460.85 380.414L463.851 386.063Z" fill="url(#paint0_linear_1_2)"/>
<path opacity="0.3" d="M470.768 363.777C472.785 365.216 493.89 409.264 496.486 414.527C507.18 436.195 518.825 458.553 529.16 480.42C531.165 485.704 535.77 493.652 538.415 499.21C539.295 501.015 541.055 504.355 541.655 506.13C542.36 507.49 543.76 510 544.275 511.325C545.296 513.446 548.66 520.775 549.71 522.37C553.51 529.925 560.325 545.75 564.225 551.97C564.78 553.275 565.32 554.56 565.925 555.845C568.82 561.71 573.39 571.955 576.445 577.245L594.05 612.73C596.13 616.971 600.91 626.145 602.35 630.03C598.865 627.26 589.44 605.615 586.625 600.015C583.905 598.4 579.825 601.015 575.59 601.505L574.7 601.05C574.215 602.01 573.845 602.14 573.035 602.86C572.505 604.145 572.745 604.351 573.06 605.771C574.084 607.77 574.505 607.73 574.26 609.525C572.275 610.845 567.74 609.485 565.865 610.82C562.545 613.195 558.415 618.01 554.66 619.675C546.515 623.29 523.105 633.81 521.81 618.07C521.055 608.935 516.725 609.57 508.645 610.975C505.315 613.91 504.145 625.91 496.711 625.11C492.342 624.64 481.365 622.97 477.51 621.555C475.321 618.745 474.533 615.745 469.648 617.175C468.334 615.395 467.712 613.75 466.683 611.805C467.029 610.885 466.724 611.18 467.488 610.82C462.272 610.97 458.503 610.6 454.919 614.19C454.066 613.595 454.375 613.815 453.863 612.725C451.307 613.065 449.241 615.865 447.261 616.695C443.539 618.245 440.093 617.815 436.619 620.08C425.229 627.515 418.464 635.91 413.438 648.56C412.563 650.76 410.27 655.535 408.239 657.155C426.246 605.36 461.868 609.44 507.155 609.505L560.93 609.39C564.27 609.33 571.01 610.195 573.355 608.53L572.95 606.605C570.73 604.605 551.76 562.9 547.785 556.43C545.805 555.645 544.1 552.14 542.385 552.29C536.975 552.77 525.65 554.95 521.15 557.53C519.89 559.105 519.87 560.605 519.521 562.67C518.851 563.485 518.905 563.53 518.09 564.165C517.96 558.625 519.615 545.37 518.62 541.55L517.775 541.6L516.7 543.03C516.94 539.06 517.325 538.49 513.89 536.245L514.105 535.535L510.34 535.43C509.2 535.53 506.935 535.43 505.7 535.41L498.788 535.57C494.139 535.605 476.094 535.11 472.95 536C444.554 537.66 417.169 547.13 393.814 563.37C386.732 568.35 381.612 572.955 375.126 578.53C376.557 575.295 378.899 573.89 381.582 571.646C390.005 564.611 384.072 563.975 380.175 558.685C377.795 560.135 373.411 565.745 371.008 564.79L370.877 563.305C372.596 560.795 393.484 516.768 393.487 516.075C389.691 515.605 386.011 510.83 384.378 507.59C382.696 504.23 382.005 500.465 382.386 496.727C382.948 490.927 385.895 483.515 387.695 477.63C389.875 470.504 391.126 459.851 395.169 453.774C398.093 449.379 401.765 444.401 405.007 440.403C408.55 436.034 416.481 435.305 417.52 428.502C417.718 427.463 417.677 427.679 418.605 426.977C418.94 428.035 418.683 427.661 419.175 428.215C420.959 420.855 422.489 418.493 428.735 413.816L429.138 414.827C430.605 414.739 430.837 413.621 432.944 412.72C437.759 413.234 440.468 411.359 443.402 413.136C446.508 410.502 457.896 381.306 460.693 379.53C462.376 380.388 462.15 380.803 463.284 382.82C466.702 381.636 469.353 383.221 473.017 383.797C474.399 383.096 477.484 382.061 478.019 381.623C477.987 376.424 470.784 367.603 470.768 363.777ZM550.15 352.94C559.16 368.34 567.085 387.262 575.05 403.414C582.75 418.719 590.245 434.128 597.525 449.638C601.52 449.767 607.09 446.975 609.995 450.631C615.015 456.957 616.03 463.767 615.81 471.595C615.8 472.032 617.61 473.275 618.005 473.527C616.935 476.094 607.32 476.542 616.295 487.376C618.34 487.855 618.27 486.989 619.3 486.846C621.2 486.583 626.86 491.481 627.795 493.073C629.24 495.533 629.725 497.646 628.93 500.365C628.304 502.51 625.015 506.1 625.795 507.705C629.17 514.65 632.84 521.935 636.285 528.81L655.62 568.32C657.695 572.56 662.575 581.275 663.155 585.435C661.94 583.899 658.165 575.985 657.11 573.83L645.48 550.04L600.03 456.846L565.865 386.695C561.575 377.929 552.63 361.25 549.335 352.972L550.15 352.94ZM460.85 380.414C449.957 401.349 439.683 425.075 429.151 446.496L392.993 520.32C385.732 534.9 378.626 549.555 371.676 564.285C374.974 561.795 377.925 558.59 380.827 556.465C382.216 554.885 390.452 549.11 392.492 547.745C413.473 533.7 431.326 526.65 455.866 520.945C457.274 520.94 474.118 518.7 475.588 518.375C476.727 517.23 476.971 516.679 477.765 515.31L479.885 511.1C480.92 508.505 482.6 505.154 483.811 502.56C485.454 499.806 488.892 492.027 490.544 488.655C492.448 485.225 495.252 479.445 496.661 475.867L502.635 464.084C492.487 444.853 483.514 424.547 473.257 405.306C470.02 399.234 466.552 392.344 463.851 386.063L460.85 380.414Z" fill="url(#paint1_radial_1_2)"/>
<g opacity="0.65">
<path d="M514.105 535.535C521.965 535.465 530.435 536.105 537.88 535.91C539.34 538.81 547.425 554.595 547.785 556.43C545.805 555.645 544.1 552.14 542.385 552.29C536.975 552.77 525.65 554.95 521.15 557.53C519.89 559.105 519.87 560.605 519.52 562.67C518.85 563.485 518.905 563.53 518.09 564.165C517.96 558.625 519.615 545.37 518.62 541.55L517.775 541.6L516.7 543.03C516.94 539.06 517.325 538.49 513.89 536.245L514.105 535.535Z" fill="url(#paint2_linear_1_2)"/>
<path d="M473.569 474.138C480.776 476.248 481.378 482.034 489.011 480.098C490.706 479.668 492.675 479.255 494.268 478.491C496.121 477.466 494.057 477.56 496.661 475.867C495.252 479.445 492.447 485.225 490.543 488.655C484.973 487.796 475.972 479.11 473.569 474.138Z" fill="#D0B893"/>
<path d="M513.89 536.245C517.325 538.49 516.94 539.06 516.7 543.03L517.775 541.6L518.62 541.55C519.615 545.37 517.96 558.625 518.09 564.165C518.905 563.53 518.85 563.485 519.52 562.67C519.87 560.605 519.89 559.105 521.15 557.53C525.65 554.95 536.975 552.77 542.385 552.29C544.1 552.14 545.805 555.645 547.785 556.43C551.76 562.9 570.73 604.605 572.95 606.605L573.355 608.53C571.01 610.195 564.27 609.33 560.93 609.39L507.155 609.505C507.255 609.185 507.695 584.1 507.635 582.38C510.355 576.53 504.435 546.515 506.755 540.055L507.61 540L508.62 540.4C508.765 539.53 508.865 538.725 508.975 537.855C510.99 537.01 511.765 536.75 513.89 536.245Z" fill="url(#paint3_linear_1_2)"/>
<path d="M505.7 535.41C506.935 535.43 509.2 535.53 510.34 535.43L514.105 535.535L513.89 536.245C511.765 536.75 510.99 537.01 508.975 537.855C508.865 538.725 508.765 539.53 508.62 540.4L507.61 540L506.755 540.055C504.435 546.515 510.355 576.53 507.635 582.38L507.33 581.76L506.98 581.975L506.67 581.815C505.645 578.91 504.32 565.99 503.795 561.97L504.75 561.24C503.875 558.77 485.164 548.6 482.627 550.43C478.66 553.285 473.149 558.77 469.025 562.03C474.228 553.195 488.137 545.01 494.077 536.455C495.662 536.11 497.19 535.85 498.788 535.57L505.7 535.41Z" fill="url(#paint4_linear_1_2)"/>
<path d="M470.291 482.83C474.923 483.189 485.427 497.423 483.802 502.23C483.805 502.34 483.808 502.45 483.81 502.56C482.6 505.155 480.919 508.505 479.884 511.1C473.645 511.135 465.548 511.4 459.485 510.94C460.668 510.14 462.171 510.205 463.66 510.075C466.743 507.155 473.328 489.674 472.599 485.454C471.586 484.632 470.654 484.123 470.291 482.83Z" fill="#D0B893"/>
<path d="M538.415 499.21C541.42 491.886 549.085 484.421 556.47 481.598C556.07 482.556 555.895 483.496 555.205 483.94C552.35 485.773 550.73 487.048 548.57 489.647C549.78 493.465 554.39 505.08 557.935 507.34C559.71 508.475 562.82 506.605 566.42 508.42C567.155 510.22 567.265 510.43 567.62 512.31L567.12 512.995C560.35 513.545 550.58 510.165 544.275 511.325C543.76 510 542.36 507.49 541.655 506.13C541.055 504.355 539.295 501.015 538.415 499.21Z" fill="#D0B893"/>
</g>
<path opacity="0.5" d="M513.89 536.245C517.325 538.49 516.94 539.06 516.7 543.03L517.775 541.6L518.62 541.55C519.615 545.371 517.96 558.625 518.09 564.165C516.84 571.085 515.53 603.109 518.75 608.03C523.86 610.185 555.429 607.445 560.93 609.39L507.155 609.505C507.255 609.185 507.695 584.104 507.635 582.38C510.355 576.53 504.435 546.516 506.755 540.055L507.61 540L508.62 540.4C508.656 540.182 508.689 539.969 508.721 539.757C508.815 539.123 508.892 538.507 508.975 537.855C510.99 537.01 511.765 536.75 513.89 536.245ZM565.925 555.845C569.265 556.44 582.21 567.39 583.35 570.26L582.785 570.175L582.37 569.595C581.22 567.99 580.95 567.315 579.295 566.435C576.38 567.445 574.725 572.67 576.24 575.345C576.495 575.8 576.465 576.715 576.445 577.245C573.39 571.955 568.82 561.71 565.925 555.845ZM472.95 536C476.094 535.11 494.139 535.605 498.788 535.57C497.19 535.85 495.662 536.11 494.077 536.455C488.138 545.01 474.229 553.195 469.025 562.03C467.906 563.68 458.917 570.71 456.843 571.645C456.321 569.045 470.569 560.775 470.994 556.73C469.558 555.77 468.724 554.57 467.617 553.235C467.276 553.13 466.934 553.03 466.593 552.925C463.291 556.12 451.596 566.445 448.064 567.96C448.286 566.935 449.743 565.375 450.571 564.78C459.818 558.13 471.91 547.565 475.998 536.405L475.042 535.865C474.126 536.18 473.918 536.055 472.95 536ZM566.42 508.42C568.84 507.905 570.175 509.914 572.89 510.29C576.99 510.86 600.315 509.36 602.175 511.135C598.359 512.145 580.995 510.56 576.375 511.855C579.19 513.96 578.755 513.65 580.37 516.82C581.845 517.76 585.845 516.855 588.755 517.065C590.935 517.03 613.34 517.06 613.79 517.235C602.425 518.335 591.71 520.18 580.15 520.6C577.905 520.68 554.935 524.205 553.725 524.69C550.68 528.59 564.83 546.245 564.225 551.97C560.325 545.75 553.51 529.925 549.71 522.37C548.66 520.774 545.295 513.445 544.275 511.325C550.58 510.165 560.35 513.545 567.12 512.995L567.62 512.31C567.265 510.43 567.155 510.22 566.42 508.42ZM423.115 511.19C423.981 510.6 455.599 510.835 459.485 510.94C465.549 511.4 473.646 511.135 479.885 511.1L477.765 515.31C476.971 516.68 476.727 517.23 475.588 518.375C474.118 518.7 457.274 520.94 455.866 520.945L455.522 520.055C452.989 518.685 444.365 518.845 440.852 518.53L440.646 517.985C441.915 517.11 445.016 517.505 446.931 517.47C446.895 516.49 446.538 516.23 446.042 515.355C446.438 513.925 446.655 513.585 446.483 512.11C443.064 512.02 425.423 511.84 423.115 511.19ZM455.583 457.116C462.3 462.426 466.374 468.311 473.569 474.138C475.972 479.11 484.974 487.796 490.544 488.656C488.891 492.027 485.454 499.807 483.811 502.56C483.808 502.45 483.805 502.34 483.803 502.23C485.427 497.423 474.923 483.189 470.291 482.83C466.358 478.444 447.031 462.259 445.004 458.936C448.539 460.069 457.595 472.764 461.632 470.858L461.646 468.973C463.293 468.289 464.001 468.901 465.084 467.776C462.426 463.996 458.612 460.754 455.583 457.116ZM570.74 452.707C572.275 451.1 572.63 450.563 574.085 451.391L574.1 452.262C565.915 458.825 562.775 467.116 555.345 472.467C558.16 473.547 557.675 472.407 560.105 475.007C563.026 473.983 576.14 460.168 578.41 458.65L578.675 459.243C575.27 465.087 560.435 475.026 556.47 481.597C549.085 484.42 541.42 491.886 538.415 499.21C535.77 493.652 531.165 485.705 529.16 480.42C530.06 481.177 531.405 482.612 532.72 481.972C545.775 475.62 560.71 463.228 570.74 452.707Z" fill="url(#paint5_linear_1_2)"/>
<defs>
<linearGradient id="paint0_linear_1_2" x1="405.42" y1="464.521" x2="473.154" y2="509.73" gradientUnits="userSpaceOnUse">
<stop stop-color="#AD8446"/>
<stop offset="1" stop-color="#C6A97B"/>
</linearGradient>
<radialGradient id="paint1_radial_1_2" cx="0" cy="0" r="1" gradientUnits="userSpaceOnUse" gradientTransform="translate(517.016 505.048) rotate(90) scale(152.107 146.139)">
<stop offset="0.115385" stop-color="#F8EF8F"/>
<stop offset="0.759615" stop-color="#E2BC6E" stop-opacity="0.1"/>
<stop offset="1" stop-color="#D2961A" stop-opacity="0"/>
</radialGradient>
<linearGradient id="paint2_linear_1_2" x1="532.005" y1="555.415" x2="528.38" y2="534.525" gradientUnits="userSpaceOnUse">
<stop stop-color="#CDB085"/>
<stop offset="1" stop-color="#E6D9C5"/>
</linearGradient>
<linearGradient id="paint3_linear_1_2" x1="546.19" y1="613.295" x2="533.835" y2="553.045" gradientUnits="userSpaceOnUse">
<stop stop-color="#AC8445"/>
<stop offset="1" stop-color="#C8AB7C"/>
</linearGradient>
<linearGradient id="paint4_linear_1_2" x1="494.386" y1="556.07" x2="504.275" y2="534.77" gradientUnits="userSpaceOnUse">
<stop stop-color="#CBB188"/>
<stop offset="1" stop-color="#E7D9C4"/>
</linearGradient>
<linearGradient id="paint5_linear_1_2" x1="518" y1="509" x2="830.5" y2="809" gradientUnits="userSpaceOnUse">
<stop stop-color="#EAA945" stop-opacity="0.5"/>
<stop offset="1" stop-color="#E9CB9E"/>
</linearGradient>
</defs>
</svg>
